<?xml version="1.0" encoding="UTF-8"?><svg xmlns="http://www.w3.org/2000/svg" viewBox="0 0 831.61 243.08"><defs><style>.d{fill:#f2f2f3;}.e{fill:#fbc012;}</style></defs><g id="a"/><g id="b"><g id="c"><g><g><path class="d" d="M112.09,26.28c11.86-1.42,22.49-.49,31.89,2.78,9.4,3.27,16.51,8.41,21.33,15.41,4.82,7.01,6.28,15.4,4.4,25.17-2.7,11.39-7.82,21.29-15.36,29.72-7.55,8.42-14.89,14.1-22.03,17.03-7.14,2.93-15.03,4.67-23.65,5.21,5.46,8.56,12.6,16.73,21.43,24.51,8.83,7.78,18.53,14.81,29.11,21.07,1.68,1.21,1.77,2.39,.25,3.54-1.52,1.15-4.14,1.67-7.88,1.57-3.74-.1-8.1-1.5-13.09-4.19-8.56-4.99-15.82-10.95-21.78-17.89-5.96-6.94-11.61-14.35-16.93-22.24-.61-.81-1.4-1.5-2.38-2.07-.98-.57-1.92-.62-2.83-.15-.91,.47-1.5,1.82-1.77,4.04-.61,4.99-1.21,9.91-1.82,14.76-.81,6.13-1.52,12.3-2.12,18.5-.14,1.08-.2,2.43-.2,4.04,0,2.43-.12,5-.35,7.73-.24,2.73-.84,5.04-1.82,6.92-.98,1.89-2.54,2.86-4.7,2.93-1.89-.14-3.61-.78-5.15-1.92-1.55-1.15-2.7-2.56-3.44-4.25-1.01-2.43-1.62-4.95-1.82-7.58-.74-8.02-.83-16.17-.25-24.46,.57-8.29,1.53-16.51,2.88-24.66-3.23-1.48-5.58-3.4-7.02-5.76-1.45-2.36-1.3-5.39,.45-9.1,.4-.94,1.01-1.68,1.82-2.22,.61-.34,1.33-.49,2.17-.45,.84,.03,1.67,.15,2.48,.35,.27,0,.57,.03,.91,.1,.61,.07,1.21,.17,1.82,.3,.2,0,.37,.03,.5,.1,3.77-18.33,8.83-36.32,15.16-53.97,.13-.4,.05-.74-.25-1.01-.3-.27-.69-.37-1.16-.3-.14,.07-.27,.1-.4,.1-.94,.2-1.85,.44-2.73,.71-.94,.4-1.89,.81-2.83,1.21-6,2.16-11.69,4.99-17.08,8.49-3.1,2.09-6.22,4.38-9.35,6.87-3.13,2.49-5.85,5.26-8.14,8.29-.47,.61-.54,1.03-.2,1.26,.34,.24,.89,.34,1.67,.3,.77-.03,1.57-.12,2.38-.25,.54,0,1.03-.02,1.47-.05,.44-.03,.76-.05,.96-.05,.54,.2,.62,.57,.25,1.11-.37,.54-1.01,1.11-1.92,1.72-.91,.61-1.94,1.11-3.08,1.52-3.37,1.08-5.91,1.5-7.63,1.26-1.72-.23-2.78-.69-3.18-1.36-.67-.88-1.01-1.95-1.01-3.23s.3-2.39,.91-3.34c6.54-11.12,16.19-21.31,28.96-30.57,12.77-9.26,26.83-15.11,42.2-17.54Zm41.54,43.16c1.42-7.08,.22-12.94-3.59-17.59-3.81-4.65-9.47-7.55-16.98-8.69-7.51-1.15-16.16,0-25.93,3.44-.2,.07-.25,.2-.15,.4,.1,.2,.27,.42,.5,.66,.24,.24,.46,.45,.66,.66,.13,.14,.27,.27,.4,.4,2.36,2.56,2.79,5.46,1.31,8.69-6,15.36-10.11,31.2-12.33,47.5-.07,.4-.1,.79-.1,1.16s.1,.69,.3,.96c.2,.27,.44,.47,.71,.61,.27,.14,.57,.24,.91,.3,2.02,.54,4.04,.84,6.06,.91,3.84,.27,9.03-.57,15.57-2.53,6.54-1.95,12.9-6,19.1-12.13,6.2-6.13,10.71-14.39,13.54-24.76Z"/><path class="d" d="M223.48,119.37c.81-1.75,1.77-3,2.88-3.74,1.11-.74,1.95-.81,2.53-.2,.57,.61,.45,2.06-.35,4.35-6.2,15.3-12.55,26.26-19.05,32.9-6.5,6.64-12.55,10.02-18.14,10.16-6.33-.13-10.61-3.2-12.84-9.2-1.21-3.64-1.74-7.66-1.57-12.08,.17-4.41,.79-9.92,1.87-16.53,.07-.13-1.03,1.53-3.28,5-2.26,3.47-6.05,9.49-11.37,18.04-.74,1.28-1.69,2.36-2.83,3.23-1.15,.88-2.39,1.28-3.74,1.21-2.63-.27-4.72-1.67-6.27-4.19-1.55-2.53-2.26-5.31-2.12-8.34,.47-8.35,2.02-15.78,4.65-22.29,2.63-6.5,6.74-12.28,12.33-17.33,1.82-1.55,3.79-2.26,5.91-2.12,2.12,.14,4.04,.73,5.76,1.77,1.72,1.05,2.91,2.21,3.59,3.49,.54,1.21,.64,2.24,.3,3.08-.34,.84-1.05,1.2-2.12,1.06-1.08-.13-2.01,.02-2.78,.46-.78,.44-1.53,1.06-2.27,1.87-6.4,6.47-10.98,14.42-13.75,23.85l.1,.1-.1-.2c2.83-3.03,6.3-7.02,10.41-11.98,4.11-4.95,8.02-9.8,11.72-14.55,3.71-4.75,6.4-8.34,8.09-10.76,.07-.13,.32-.49,.76-1.06,.44-.57,.94-1.15,1.52-1.72,.57-.57,1.06-.96,1.46-1.16,2.43-.67,4.56,.02,6.42,2.07,1.85,2.06,2.71,4.6,2.58,7.63-.14,1.55-.27,2.76-.4,3.64-.14,.88-.34,1.69-.61,2.43-.27,.74-.67,1.65-1.21,2.73-.14,.34-.27,.71-.4,1.11-1.82,4.11-3.72,9.28-5.71,15.51-1.99,6.23-3.3,11.84-3.94,16.83-.64,4.99,.12,7.75,2.27,8.29,4.92,.14,10.09-3.07,15.52-9.6,5.42-6.54,10.16-14.45,14.2-23.75Z"/><path class="d" d="M277.06,73.89c.2-.07,.37-.03,.51,.1,.2,.14,.35,.34,.46,.61,.1,.27,.12,.51,.05,.71-.07,.34-.17,.67-.3,1.01-.2,.34-.34,.67-.4,1.01-.07,.81,.03,1.58,.3,2.32,.27,.81,.34,1.65,.2,2.53-.34,1.35-.94,2.73-1.82,4.14-.34,.67-.67,1.35-1.01,2.02-.81,1.75-2.8,6.35-5.96,13.8-3.17,7.45-6.4,15.15-9.7,23.1-3.3,7.95-5.53,13.58-6.67,16.88-1.62,4.92-3.5,9.7-5.66,14.35-.61,1.42-1.55,3.2-2.83,5.36-1.28,2.16-2.66,4.13-4.14,5.91-1.48,1.79-2.83,2.68-4.04,2.68-2.63,0-4.77-1.06-6.42-3.18-1.65-2.12-2.93-4.75-3.84-7.88-.91-3.13-1.5-6.32-1.77-9.55-.67-7.82-.84-15.63-.51-23.45v-1.01c.47-13,1.82-25.91,4.04-38.71,.27-1.82,.81-3.08,1.62-3.79,.81-.71,2.05-.66,3.74,.15,2.43,1.28,4.55,2.97,6.37,5.05,1.21,1.42,1.79,3.07,1.72,4.95-.14,1.35-.24,2.7-.3,4.04-.27,3.98-.61,7.92-1.01,11.83-1.62,13.68-2.22,27.39-1.82,41.14v.1c0,.4,.03,.96,.1,1.67,.07,.71,.2,1.36,.4,1.97s.5,.94,.91,1.01c.4,0,.82-.42,1.26-1.26,.44-.84,.88-1.9,1.31-3.18,.44-1.28,.82-2.49,1.16-3.64,.34-.94,.61-1.72,.81-2.32,2.96-8.15,6.17-16.24,9.6-24.26,.74-1.62,2.48-5.26,5.21-10.92,2.73-5.66,5.47-11.32,8.24-16.98,2.76-5.66,4.55-9.33,5.36-11.02,.07-.07,.13-.13,.2-.2,0-.07,.03-.13,.1-.2,.2-.47,.4-.91,.61-1.31,.61-1.35,1.31-2.63,2.12-3.84,.07-.07,.13-.13,.2-.2,.2-.34,.44-.66,.71-.96,.27-.3,.57-.49,.91-.56Z"/><path class="d" d="M333.37,116.44c.61,.07,1.03,.34,1.26,.81,.24,.47,.35,1,.35,1.57s-.04,1.03-.1,1.36c-1.42,7.35-4.04,14.34-7.88,20.97-3.84,6.64-8.88,12.08-15.11,16.32-6.23,4.25-13.66,6.37-22.29,6.37-5.05-.13-9.18-1.5-12.38-4.09-3.2-2.59-5.57-5.79-7.12-9.6-1.55-3.81-2.33-7.5-2.33-11.07,0-7.41,1.57-14.49,4.7-21.23,3.13-6.74,7.39-12.2,12.79-16.37,3.5-2.76,7.34-4.55,11.52-5.36,2.36-.47,4.61-.17,6.77,.91,1.82,1.21,3.17,2.93,4.04,5.15,.88,2.22,1.42,4.55,1.62,6.97,.4,3.77,.2,7.5-.61,11.17-.81,3.67-2.32,6.86-4.55,9.55-2.97,3.17-6.47,5.19-10.51,6.06-1.89,.4-3.44,.69-4.65,.86-1.21,.17-2.76,.25-4.65,.25-1.01,5.05-.46,8.94,1.67,11.67,2.12,2.73,4.77,4.06,7.93,3.99,8.09-.4,15.65-3.77,22.69-10.11,7.04-6.33,11.57-14.25,13.59-23.75,.07-.47,.39-.99,.96-1.57,.57-.57,1.33-.86,2.27-.86Zm-46.8,10.92c-.2,.47-.3,.94-.3,1.42,.07,.67,.29,1.08,.66,1.21,.37,.14,.76,.12,1.16-.05,.4-.17,.74-.35,1.01-.56,.94-.74,2.09-2.1,3.44-4.09,1.35-1.99,2.56-4.36,3.64-7.13,.47-1.28,.82-2.68,1.06-4.19,.24-1.52,.32-2.85,.25-3.99-.07-1.15-.3-1.75-.71-1.82-2.16,0-4.08,1.77-5.76,5.31-1.68,3.54-3.17,8.17-4.45,13.9Z"/><path class="d" d="M370.07,95.11c2.96-3.77,6.23-6.22,9.8-7.33,3.57-1.11,6.84,.05,9.8,3.49,1.01,1.35,1.6,2.9,1.77,4.65,.17,1.75,.18,3.47,.05,5.15-.54,9.7-1.55,19.34-3.03,28.91-.14,1.62-.25,3.02-.35,4.19-.1,1.18-.2,2.34-.3,3.49-.1,1.15-.15,2.02-.15,2.63s.03,1.38,.1,2.32c.07,1.15,.1,2.32,.1,3.54s-.1,2.16-.3,2.83c-.07,.27-.17,.47-.3,.61h-.3c-.34,0-.94-.24-1.82-.71-1.35-.67-2.71-2.04-4.09-4.09-1.38-2.05-2.07-4.97-2.07-8.74v-1.21c-.07-1.15-.04-2.29,.1-3.44,.07-.34,.1-.67,.1-1.01,.07-.13,.1-.3,.1-.51,.07-.81,.17-1.55,.3-2.22,.47-3.1,.98-6.2,1.52-9.3,1.48-7.28,2.22-14.62,2.22-22.03,0-.27-.02-.54-.05-.81-.04-.27-.15-.51-.35-.71-.27-.2-.56-.3-.86-.3s-.59,.07-.86,.2c-.47,.34-.88,.78-1.21,1.31-6.27,9.43-11.96,19.15-17.08,29.16-5.12,10.01-9.94,20.2-14.45,30.58-1.15,2.63-2.12,5.32-2.93,8.09-.14,.34-.24,.67-.3,1.01-.4,2.56-1.45,4.82-3.13,6.77-.88,.88-1.94,1.52-3.18,1.92-1.25,.4-2.48,.37-3.69-.1-1.35-.67-2.46-1.65-3.33-2.93-2.83-4.04-4.38-8.52-4.65-13.44-.27-4.92-.13-9.8,.4-14.66,.07-.94,.17-1.89,.3-2.83,.94-11.52,2.69-22.91,5.26-34.16,1.08-4.85,2.26-9.67,3.54-14.45,.07-.34,.17-.67,.3-1.01v-.2c.07-.07,.1-.13,.1-.2,.34-1.55,.86-2.96,1.57-4.25,.71-1.28,1.83-2.22,3.39-2.83,1.28-.47,2.66-.76,4.14-.86,1.48-.1,2.86,.19,4.14,.86,5.39,3.03,7.21,7.62,5.46,13.75-1.15,3.3-2.26,7.31-3.33,12.03-1.08,4.72-1.97,8.96-2.68,12.74-.71,3.77-1.06,5.9-1.06,6.37,0,1.75,.27,2.49,.81,2.22,.54-.27,1.11-1.04,1.72-2.32,5.46-12.06,11.72-22.77,18.8-32.14Z"/><path class="d" d="M480.43,26.18c8.02-3.64,15.68-3.98,23-1.01,7.31,2.97,12.08,8.15,14.3,15.57,.81,3.64,.98,7.33,.51,11.07-.47,3.74-1.35,7.06-2.63,9.96-.61,1.69-1.58,3.17-2.93,4.45-1.01,.74-2.22,1.13-3.64,1.16-1.42,.04-2.66-.3-3.74-1.01-1.08-.71-1.65-1.73-1.72-3.08,.07-1.89,.3-4.01,.71-6.37,.67-3.3,.93-6.35,.76-9.15-.17-2.79-1.57-4.46-4.19-5-3.98-.2-9.49,2.56-16.53,8.29-7.04,5.73-13.68,12.99-19.91,21.78-6.23,8.79-10.09,17.71-11.57,26.73-.47,4.72,1.45,8.04,5.76,9.96,4.31,1.92,9.7,3.49,16.17,4.7,5.59,1.01,11.07,2.44,16.42,4.3,5.36,1.85,9.7,4.77,13.04,8.74,3.33,3.98,4.8,9.67,4.4,17.08-.88,7.41-4.21,13.93-10.01,19.56-5.8,5.63-12.37,9.92-19.71,12.89-7.35,2.96-13.81,4.18-19.41,3.64-6.87-1.01-11.88-4.21-15.01-9.6-3.13-5.39-2.95-11.89,.56-19.51,2.49-4.31,6.03-7.55,10.61-9.7,.27-.07,.5-.12,.71-.15,.2-.03,.4-.03,.61,0,.2,.03,.39,.15,.56,.35,.17,.2,.25,.47,.25,.81,.07,.47,.02,.98-.15,1.52-.17,.54-.37,1.06-.61,1.57-.24,.5-.52,1.1-.86,1.77-.07,0-.1,.03-.1,.1-1.35,2.16-2.53,4.38-3.54,6.67-1.35,3.71-.5,6.64,2.53,8.79,3.03,2.16,8.22,1.96,15.57-.61,5.19-2.02,9.58-4.67,13.19-7.93,3.6-3.27,5.91-7.23,6.92-11.88,.47-4.31-1.89-7.78-7.08-10.41-5.19-2.63-11.08-4.35-17.69-5.15h-.51c-3.77-.34-8.42-1.2-13.95-2.58-5.53-1.38-10.43-4.03-14.71-7.93-4.28-3.91-6.42-9.74-6.42-17.49,.4-6.94,2.32-14.03,5.76-21.28,3.44-7.24,7.23-13.8,11.37-19.66,4.14-5.86,7.46-10.17,9.96-12.94,3.3-3.84,6.82-7.39,10.56-10.66,3.74-3.27,7.87-6.05,12.38-8.34Z"/><path class="d" d="M588.58,119.37c.81-1.75,1.77-3,2.88-3.74,1.11-.74,1.95-.81,2.53-.2,.57,.61,.46,2.06-.35,4.35-6.2,15.3-12.55,26.26-19.05,32.9-6.5,6.64-12.55,10.02-18.14,10.16-6.33-.13-10.61-3.2-12.84-9.2-1.21-3.64-1.74-7.66-1.57-12.08,.17-4.41,.79-9.92,1.87-16.53,.07-.13-1.03,1.53-3.29,5-2.26,3.47-6.05,9.49-11.37,18.04-.74,1.28-1.69,2.36-2.83,3.23-1.15,.88-2.39,1.28-3.74,1.21-2.63-.27-4.71-1.67-6.27-4.19-1.55-2.53-2.26-5.31-2.12-8.34,.47-8.35,2.02-15.78,4.65-22.29,2.63-6.5,6.74-12.28,12.33-17.33,1.82-1.55,3.79-2.26,5.91-2.12,2.12,.14,4.04,.73,5.76,1.77,1.72,1.05,2.91,2.21,3.59,3.49,.54,1.21,.64,2.24,.3,3.08-.34,.84-1.05,1.2-2.12,1.06-1.08-.13-2.01,.02-2.78,.46-.78,.44-1.53,1.06-2.27,1.87-6.4,6.47-10.98,14.42-13.75,23.85l.1,.1-.1-.2c2.83-3.03,6.3-7.02,10.41-11.98,4.11-4.95,8.02-9.8,11.72-14.55,3.71-4.75,6.4-8.34,8.09-10.76,.07-.13,.32-.49,.76-1.06,.44-.57,.94-1.15,1.52-1.72,.57-.57,1.06-.96,1.46-1.16,2.43-.67,4.56,.02,6.42,2.07,1.85,2.06,2.71,4.6,2.58,7.63-.14,1.55-.27,2.76-.4,3.64-.14,.88-.34,1.69-.61,2.43-.27,.74-.67,1.65-1.21,2.73-.14,.34-.27,.71-.4,1.11-1.82,4.11-3.72,9.28-5.71,15.51-1.99,6.23-3.3,11.84-3.94,16.83-.64,4.99,.12,7.75,2.27,8.29,4.92,.14,10.09-3.07,15.51-9.6,5.42-6.54,10.16-14.45,14.2-23.75Z"/><path class="d" d="M642.16,73.89c.2-.07,.37-.03,.51,.1,.2,.14,.35,.34,.46,.61,.1,.27,.12,.51,.05,.71-.07,.34-.17,.67-.3,1.01-.2,.34-.34,.67-.4,1.01-.07,.81,.03,1.58,.3,2.32,.27,.81,.34,1.65,.2,2.53-.34,1.35-.94,2.73-1.82,4.14-.34,.67-.67,1.35-1.01,2.02-.81,1.75-2.8,6.35-5.96,13.8-3.17,7.45-6.4,15.15-9.7,23.1-3.3,7.95-5.53,13.58-6.67,16.88-1.62,4.92-3.5,9.7-5.66,14.35-.61,1.42-1.55,3.2-2.83,5.36-1.28,2.16-2.66,4.13-4.14,5.91-1.48,1.79-2.83,2.68-4.04,2.68-2.63,0-4.77-1.06-6.42-3.18-1.65-2.12-2.93-4.75-3.84-7.88-.91-3.13-1.5-6.32-1.77-9.55-.67-7.82-.84-15.63-.5-23.45v-1.01c.47-13,1.82-25.91,4.04-38.71,.27-1.82,.81-3.08,1.62-3.79,.81-.71,2.05-.66,3.74,.15,2.43,1.28,4.55,2.97,6.37,5.05,1.21,1.42,1.78,3.07,1.72,4.95-.14,1.35-.24,2.7-.3,4.04-.27,3.98-.61,7.92-1.01,11.83-1.62,13.68-2.22,27.39-1.82,41.14v.1c0,.4,.03,.96,.1,1.67,.07,.71,.2,1.36,.4,1.97s.51,.94,.91,1.01c.4,0,.82-.42,1.26-1.26,.44-.84,.88-1.9,1.31-3.18,.44-1.28,.82-2.49,1.16-3.64,.34-.94,.61-1.72,.81-2.32,2.96-8.15,6.17-16.24,9.6-24.26,.74-1.62,2.48-5.26,5.21-10.92,2.73-5.66,5.47-11.32,8.24-16.98,2.76-5.66,4.55-9.33,5.36-11.02,.07-.07,.13-.13,.2-.2,0-.07,.03-.13,.1-.2,.2-.47,.4-.91,.61-1.31,.61-1.35,1.31-2.63,2.12-3.84,.07-.07,.13-.13,.2-.2,.2-.34,.44-.66,.71-.96,.27-.3,.57-.49,.91-.56Z"/><path class="d" d="M739.7,74.09c-2.56,8.36-5.02,16.78-7.38,25.27-.4,1.55-.84,3.1-1.31,4.65-2.7,9.23-5.14,19.12-7.33,29.67-2.19,10.55-3.56,22.83-4.09,36.84,.13,1.55,.98,1.92,2.53,1.11,.81-.47,1.55-.94,2.22-1.42,.47-.27,.94-.54,1.41-.81,.27,.94,.3,1.9,.1,2.88-.2,.98-.54,1.9-1.01,2.78-.67,1.42-1.92,3.01-3.74,4.8-1.82,1.78-3.71,2.71-5.66,2.78-2.97-.27-5.32-1.58-7.08-3.94-1.75-2.36-3-5.04-3.74-8.04-.74-3-1.01-5.64-.81-7.93,0-.54,.03-1.11,.1-1.72,.2-6.06,.93-13.43,2.17-22.08,1.25-8.66,4.13-21.01,8.64-37.04-.2,.74-.47,1.52-.81,2.32-1.28,4.11-3.07,9.42-5.36,15.92-2.29,6.5-4.9,13.06-7.83,19.66-2.93,6.6-6.03,12.13-9.3,16.58-3.27,4.45-6.55,6.67-9.85,6.67-4.31-.4-7.38-2.12-9.2-5.15-1.82-3.03-2.86-6.37-3.13-10.01-.27-3.64-.27-6.57,0-8.79,.61-6.27,1.48-12.43,2.63-18.5,0-.61,.07-1.21,.2-1.82,.88-4.92,1.99-10.38,3.34-16.37-.54,1.62-1.15,3.57-1.82,5.86-1.28,4.25-2.83,9.06-4.65,14.45-1.82,5.39-3.94,10.6-6.37,15.62-2.43,5.02-5.16,9.22-8.19,12.58-3.03,3.37-6.33,5.05-9.91,5.05-3.1,0-5.44-.99-7.02-2.98-1.58-1.99-2.61-4.28-3.08-6.87-.47-2.59-.61-4.94-.4-7.02,1.08-11.72,3.2-23.15,6.37-34.26,.13-.34,.27-.81,.4-1.42,.13-.67,.29-1.38,.46-2.12,.17-.74,.42-1.28,.76-1.62v-.1c.47-.4,1.11-.64,1.92-.71,.81-.07,1.48-.07,2.02,0,2.56,.47,4.75,1.82,6.57,4.04,1.75,1.89,2.39,4.21,1.92,6.97-.95,4.45-1.89,8.86-2.83,13.24v.2c-.95,4.31-1.67,7.93-2.17,10.87-.5,2.93-.86,5.29-1.06,7.08-.2,1.79-.27,3.12-.2,3.99,.07,.88,.22,1.45,.46,1.72,.24,.27,.49,.34,.76,.2,2.9-1.21,6.23-5.84,10.01-13.9,3.77-8.05,7.61-17.54,11.52-28.45,3.91-10.92,7.48-21.29,10.71-31.13,1.89-5.59,3.57-10.48,5.05-14.66v-.1c1.89-5.93,3.84-11.79,5.86-17.59,.2-.4,.37-.81,.5-1.21,.88-2.63,1.82-5.22,2.83-7.78,1.42-3.84,2.86-6.89,4.35-9.15,1.48-2.26,3.27-3.32,5.36-3.18,2.83,.34,4.88,1.77,6.17,4.3,1.28,2.53,1.99,5.24,2.12,8.14,.07,3.23-.4,6.35-1.42,9.35-1.01,3-2.19,5.98-3.54,8.94-1.15,2.63-2.19,5.26-3.13,7.88-4.45,13.48-8.56,27.05-12.33,40.73-.2,.74-.57,1.92-1.11,3.54-1.21,3.84-2.7,9.03-4.45,15.57-.14,.54-.24,1.08-.3,1.62-.27,1.08-.51,2.16-.71,3.23-2.02,8.15-3.13,14.59-3.33,19.31-.2,4.72,.4,7.14,1.82,7.28,2.43-.61,6.15-6.2,11.17-16.78,5.02-10.58,10.16-22.74,15.41-36.49s9.43-25.6,12.53-35.58c.4-1.21,.81-2.46,1.21-3.74,.13-.47,.27-.94,.4-1.42,.94-2.9,1.75-5.39,2.43-7.48v-.2c.07-.13,.13-.27,.2-.4,.61-2.02,1.08-3.47,1.42-4.35l.1-.1c2.16-6.54,4.41-13.07,6.77-19.61,.81-2.09,2-3.22,3.59-3.39,1.58-.17,3.25,.29,5,1.36,3.23,2.02,5.17,4.72,5.81,8.09,.64,3.37,.54,6.89-.3,10.56-.84,3.67-1.87,6.96-3.08,9.85-.34,.88-.67,1.72-1.01,2.53-1.15,2.83-2.22,5.73-3.23,8.69-1.42,4.18-2.76,8.39-4.04,12.63Zm-91.17-10.41c0-.4,.03-.81,.1-1.21,.07-.81,.17-1.58,.3-2.32,1.21-3.91,2.49-7.75,3.84-11.52,.34-.88,.76-1.42,1.26-1.62,.51-.2,1.13-.24,1.87-.1,3.91,.81,6.74,3.27,8.49,7.38,.74,1.42,.71,2.83-.1,4.25-1.08,1.96-2.24,3.72-3.49,5.31-1.25,1.58-2.85,2.71-4.8,3.39-.34,.14-.64,.37-.91,.71l-.61,.61c-1.01,.54-2.09,.59-3.23,.15-1.15-.44-1.96-1.23-2.43-2.38-.2-.61-.3-1.21-.3-1.82v-.81Z"/><path class="d" d="M798.44,116.44c.61,.07,1.03,.34,1.26,.81,.24,.47,.35,1,.35,1.57s-.04,1.03-.1,1.36c-1.42,7.35-4.04,14.34-7.88,20.97-3.84,6.64-8.88,12.08-15.11,16.32-6.23,4.25-13.66,6.37-22.29,6.37-5.05-.13-9.18-1.5-12.38-4.09-3.2-2.59-5.57-5.79-7.13-9.6-1.55-3.81-2.32-7.5-2.32-11.07,0-7.41,1.57-14.49,4.7-21.23,3.13-6.74,7.39-12.2,12.79-16.37,3.5-2.76,7.34-4.55,11.52-5.36,2.36-.47,4.62-.17,6.77,.91,1.82,1.21,3.17,2.93,4.04,5.15,.88,2.22,1.42,4.55,1.62,6.97,.4,3.77,.2,7.5-.61,11.17-.81,3.67-2.32,6.86-4.55,9.55-2.97,3.17-6.47,5.19-10.51,6.06-1.89,.4-3.44,.69-4.65,.86-1.21,.17-2.76,.25-4.65,.25-1.01,5.05-.45,8.94,1.67,11.67,2.12,2.73,4.77,4.06,7.93,3.99,8.09-.4,15.65-3.77,22.69-10.11,7.04-6.33,11.57-14.25,13.59-23.75,.07-.47,.39-.99,.96-1.57,.57-.57,1.33-.86,2.27-.86Zm-46.8,10.92c-.2,.47-.3,.94-.3,1.42,.07,.67,.29,1.08,.66,1.21,.37,.14,.76,.12,1.16-.05,.4-.17,.74-.35,1.01-.56,.94-.74,2.09-2.1,3.44-4.09,1.35-1.99,2.56-4.36,3.64-7.13,.47-1.28,.82-2.68,1.06-4.19,.24-1.52,.32-2.85,.25-3.99-.07-1.15-.3-1.75-.71-1.82-2.16,0-4.08,1.77-5.76,5.31-1.69,3.54-3.17,8.17-4.45,13.9Z"/></g><polygon class="e" points="815.67 85.23 819.59 101.3 831.61 104.8 819.65 108.5 816 124.64 812.07 108.57 800.2 105.06 812.01 101.36 815.67 85.23"/><polygon class="e" points="22.61 65.14 39.61 97.56 67.28 98.66 43.59 112.99 44.35 149.59 27.35 117.17 0 115.98 23.37 101.74 22.61 65.14"/><polygon class="e" points="795.53 49.28 798.44 72.79 814.95 79.76 797.34 83.05 789.46 105.39 786.54 81.88 770.25 74.93 787.65 71.62 795.53 49.28"/><polygon class="e" points="389.59 182.25 390.38 165.72 379.85 158.96 392.36 158.79 400.44 144.35 399.65 160.88 410.04 167.6 397.67 167.81 389.59 182.25"/></g></g></g></svg>